<?xml version="1.0" standalone="no"?>
<!DOCTYPE svg PUBLIC "-//W3C//DTD SVG 20010904//EN"
 "http://www.w3.org/TR/2001/REC-SVG-20010904/DTD/svg10.dtd">
<svg version="1.0" xmlns="http://www.w3.org/2000/svg"
 width="200.000000pt" height="200.000000pt" viewBox="0 0 500.000000 500.000000"
 preserveAspectRatio="xMidYMid meet">

<g transform="translate(0.000000,500.000000) scale(0.100000,-0.100000)"
fill="#000000" stroke="none">
<path d="M2420 4235 c-148 -30 -303 -129 -380 -243 l-15 -22 -109 20 c-338 62
-606 -31 -739 -259 -36 -61 -87 -178 -87 -199 0 -6 -5 -34 -11 -61 -10 -47
-13 -51 -47 -57 -20 -4 -75 -27 -122 -52 -203 -106 -303 -220 -337 -388 -17
-80 -17 -88 0 -170 37 -180 138 -304 312 -387 92 -44 164 -68 228 -76 l52 -6
-4 -325 c-3 -291 -2 -327 13 -339 13 -11 20 -11 41 3 48 32 48 31 44 515 l-4
455 30 15 c51 24 57 27 145 53 250 76 516 109 860 109 196 0 499 -16 593 -31
34 -5 105 -14 157 -20 135 -15 311 -48 485 -90 74 -18 231 -72 242 -83 2 -3
-2 -31 -10 -64 -15 -55 -39 -161 -73 -318 -9 -38 -24 -106 -34 -150 -10 -44
-24 -104 -30 -132 -10 -44 -16 -53 -34 -53 -12 0 -26 4 -31 9 -6 5 -46 19 -90
31 -44 12 -107 30 -140 40 -57 18 -89 25 -305 69 -199 41 -363 55 -630 54
-318 0 -419 -14 -735 -99 -33 -9 -64 -20 -70 -26 -7 -7 -3 -8 10 -5 104 29
156 32 475 32 341 0 414 -5 700 -51 268 -43 575 -119 637 -159 41 -25 69 -89
54 -127 -22 -59 -123 -93 -326 -109 -255 -20 -852 7 -1334 61 -183 21 -241 21
-99 1 387 -56 564 -79 728 -96 584 -58 1006 -42 1175 44 83 43 108 82 120 188
7 67 29 224 55 403 11 69 26 179 35 245 9 66 22 157 29 202 12 79 12 82 -8 91
-34 15 -117 43 -175 58 -29 8 -58 17 -62 20 -13 8 -10 37 6 58 8 11 15 26 15
33 0 15 50 96 63 101 4 2 7 9 7 16 0 7 16 27 35 46 19 18 33 35 31 37 -10 11
-207 -120 -270 -178 l-71 -66 -50 12 c-109 27 -233 54 -295 65 -108 19 -103
15 -96 72 9 67 42 135 124 256 43 63 43 63 15 48 -53 -27 -141 -105 -185 -164
-44 -58 -88 -139 -88 -162 0 -9 -12 -11 -47 -6 -27 3 -106 11 -177 16 -71 6
-130 11 -131 13 0 1 -9 14 -18 29 -23 37 -48 154 -56 262 l-6 91 -32 -47 c-63
-94 -89 -185 -79 -278 l7 -58 -113 -1 c-122 -2 -345 -18 -358 -26 -18 -11
-112 135 -146 228 -8 23 -22 65 -31 92 l-17 50 -8 -65 c-12 -89 -3 -252 17
-289 8 -17 15 -34 15 -40 0 -5 -24 -14 -52 -21 -96 -22 -238 -69 -340 -114
-21 -9 -41 -16 -45 -16 -17 0 -148 90 -190 131 -30 29 -43 37 -43 25 0 -35 45
-102 116 -172 l74 -73 0 -106 c0 -58 -3 -105 -7 -105 -38 1 -210 59 -246 83
-14 9 -30 17 -34 17 -17 0 -106 85 -130 123 -14 22 -34 65 -44 95 -51 147 10
317 151 425 59 45 187 98 268 112 40 6 42 8 42 43 1 118 63 270 143 353 93 95
213 139 381 139 61 0 127 -5 146 -11 19 -5 55 -16 80 -23 25 -7 61 -20 81 -29
l35 -16 29 54 c55 105 181 212 300 254 75 27 170 27 292 1 130 -27 228 -78
322 -165 l76 -71 75 14 c161 30 375 12 467 -39 101 -56 177 -172 213 -329 l21
-86 82 -11 c72 -9 123 -25 204 -65 38 -19 128 -113 152 -159 48 -90 61 -146
61 -258 0 -179 -46 -275 -225 -470 -33 -37 -57 -64 -53 -61 21 15 168 163 168
168 0 4 12 18 26 31 29 28 99 144 131 216 12 28 29 91 39 142 16 86 16 97 1
177 -18 89 -37 131 -97 208 -70 88 -189 164 -324 205 -26 8 -33 19 -57 89 -35
106 -38 113 -70 159 -76 111 -169 181 -299 226 -56 19 -86 22 -210 22 -80 0
-163 -5 -184 -11 -38 -11 -40 -11 -122 51 -124 93 -264 160 -382 183 -89 17
-175 17 -262 -1z"/>
<path d="M2975 2626 c-75 -34 -123 -124 -135 -252 -8 -93 -2 -142 23 -191 64
-123 248 -104 308 32 10 22 23 78 30 125 19 134 -12 239 -80 275 -44 22 -111
28 -146 11z m85 -115 c25 -47 5 -230 -30 -273 -16 -20 -20 -21 -35 -8 -15 13
-17 28 -13 115 7 143 46 225 78 166z"/>
<path d="M1725 2619 c-44 -5 -85 -11 -91 -13 -7 -3 -15 -79 -23 -203 -6 -109
-14 -219 -17 -245 l-6 -48 73 0 72 0 -6 74 c-6 62 -4 75 9 80 27 10 29 8 74
-79 24 -47 48 -85 53 -85 16 0 107 61 107 71 0 5 -17 40 -37 78 l-37 68 32 37
c17 20 32 45 32 56 0 10 5 22 10 25 15 9 12 80 -4 120 -26 61 -99 80 -241 64z
m115 -134 c0 -47 -51 -95 -101 -95 -22 0 -1 96 24 112 7 4 27 8 45 8 28 0 32
-3 32 -25z"/>
<path d="M2222 2623 c-30 -4 -37 -11 -59 -61 -43 -98 -91 -227 -124 -338 -36
-123 -36 -124 51 -124 60 0 80 11 80 44 0 35 13 44 67 52 l52 6 3 -48 3 -49
69 -3 c38 -2 73 1 77 5 4 4 1 44 -7 88 -68 375 -76 404 -120 424 -25 11 -31
11 -92 4z m41 -265 c5 -34 4 -38 -17 -38 -21 0 -22 2 -12 55 11 58 18 54 29
-17z m-72 -25 c-12 -20 -14 -14 -5 12 4 9 9 14 11 11 3 -2 0 -13 -6 -23z m175
-112 c-4 -5 -2 -11 3 -13 4 -1 11 -21 15 -43 l7 -40 -21 33 c-22 35 -27 72 -9
72 5 0 8 -4 5 -9z"/>
<path d="M3250 2598 c0 -24 3 -29 9 -18 6 8 7 18 5 22 -3 4 2 8 10 8 9 0 16
-3 16 -8 0 -15 -31 -52 -40 -47 -7 4 -17 -156 -23 -380 l-2 -70 54 -3 c102 -6
97 -14 99 160 1 84 6 198 11 253 5 55 7 103 4 108 -2 4 -35 7 -74 7 l-69 0 0
-32z m20 -103 c0 -8 -2 -15 -4 -15 -2 0 -6 7 -10 15 -3 8 -1 15 4 15 6 0 10
-7 10 -15z m-13 -82 c-3 -10 -5 -2 -5 17 0 19 2 27 5 18 2 -10 2 -26 0 -35z"/>
<path d="M2580 2602 c-68 -36 -106 -155 -71 -220 7 -13 44 -43 82 -68 59 -38
69 -49 69 -73 0 -39 -23 -45 -77 -21 -65 29 -77 26 -99 -21 -18 -41 -18 -42 1
-56 36 -26 125 -46 178 -40 93 12 150 69 150 152 0 55 -26 92 -106 147 -50 35
-63 49 -65 74 -4 37 23 67 39 43 5 -8 9 -29 9 -46 0 -33 0 -33 49 -33 71 0 81
6 81 50 0 56 -19 99 -51 115 -41 22 -146 19 -189 -3z"/>
</g>
</svg>
